<?xml version="1.0" encoding="utf-8"?>
<!-- Generator: Adobe Illustrator 18.1.1, SVG Export Plug-In . SVG Version: 6.00 Build 0)  -->
<svg version="1.1" id="Layer_1" xmlns="http://www.w3.org/2000/svg" xmlns:xlink="http://www.w3.org/1999/xlink" x="0px" y="0px"
	 viewBox="0 0 178.9 64.1" enable-background="new 0 0 178.9 64.1" xml:space="preserve">
<polygon fill="#242422" points="66,43 70.2,43 74.4,56.3 74.5,56.3 78.8,43 82.7,43 76.3,61.6 72.4,61.6 "/>
<rect x="90.9" y="43" fill="#242422" width="4" height="18.5"/>
<g>
	<path fill="#242422" d="M104.7,43h7c4.6,0,7.3,1.6,7.3,5.7c0,2.9-1.4,4.5-3.9,5.3l4.1,7.5h-4.3l-3.9-7h-2.4v7h-4V43z M111.5,51.4
		c2.3,0,3.5-0.7,3.5-2.6c0-1.8-1.1-2.5-3.5-2.5h-2.8v5H111.5z"/>
	<polygon fill="#242422" points="131.7,46.4 126.2,46.4 126.2,43 141.3,43 141.3,46.4 135.8,46.4 135.8,61.6 131.7,61.6 	"/>
	<rect x="149.7" y="43" fill="#242422" width="4" height="18.5"/>
	<polygon fill="#242422" points="168.3,51.8 162.9,43 167.5,43 170.8,48.6 174,43 178.2,43 172.9,51.8 178.9,61.6 174.4,61.6 
		170.4,55.1 166.6,61.6 162.4,61.6 	"/>
	<path fill="#00497D" d="M63.6,10.3h-5.4L40.7,37c-1.3,1.9-4.1,1.9-5.3,0L17.9,10.3H4.3c-3.4,0-5.4,3.8-3.6,6.6l29.6,45.3
		c1.7,2.6,5.4,2.6,7.1,0l29.6-45.3C69,14.1,66.9,10.3,63.6,10.3"/>
	<path fill="#5BAD66" d="M28.1,10.3L35.7,22c1.1,1.6,3.5,1.6,4.5,0l7.7-11.7l4-6.1C53.1,2.4,51.8,0,49.7,0H26.3
		c-2.1,0-3.4,2.4-2.3,4.2L28.1,10.3z"/>
</g>
</svg>
